<?xml version="1.0" encoding="UTF-8" standalone="no"?>
<!DOCTYPE svg PUBLIC "-//W3C//DTD SVG 1.1//EN" "http://www.w3.org/Graphics/SVG/1.1/DTD/svg11.dtd">
<svg width="100%" height="100%" viewBox="0 0 800 800" version="1.1" xmlns="http://www.w3.org/2000/svg" xmlns:xlink="http://www.w3.org/1999/xlink" xml:space="preserve" xmlns:serif="http://www.serif.com/" style="fill-rule:evenodd;clip-rule:evenodd;stroke-linejoin:round;stroke-miterlimit:2;">
    <path d="M719.45,25.1L79.775,25.1C49.8,25.1 25.475,49.2 25.125,79.075L25.125,720.875C25.475,750.775 49.8,774.9 79.775,774.9L720.075,774.9C750.075,774.9 774.45,750.825 774.925,720.925L774.925,79.125C774.45,49.2 750.075,25.1 720.05,25.1L719.325,25.1L719.45,25.1ZM247.5,664.05L136.15,664.05L136.15,306.275L247.5,306.275L247.5,664.05ZM191.85,257.325C156.225,257.325 127.375,228.45 127.375,192.85C127.375,157.25 156.25,128.375 191.85,128.375C227.45,128.375 256.325,157.225 256.325,192.825L256.325,192.925C256.325,228.5 227.475,257.35 191.9,257.35L191.825,257.35L191.85,257.325ZM663.9,664.05L552.875,664.05L552.875,490.075C552.875,448.575 552.025,395.2 495.025,395.2C437.125,395.2 428.3,440.35 428.3,487.025L428.3,664.075L317.275,664.075L317.275,306.3L423.925,306.3L423.925,355.075L425.375,355.075C446.075,320.2 483.525,297.2 526.35,297.2C527.875,297.2 529.375,297.225 530.875,297.275L530.65,297.275C643.15,297.275 663.95,371.325 663.95,467.7L663.95,664.075L663.9,664.05Z" style="fill:rgb(31,119,180);fill-rule:nonzero;"/>
</svg>
