<?xml version="1.0" encoding="UTF-8" standalone="no"?>
<!DOCTYPE svg PUBLIC "-//W3C//DTD SVG 1.1//EN" "http://www.w3.org/Graphics/SVG/1.1/DTD/svg11.dtd">
<svg width="100%" height="100%" viewBox="0 0 800 800" version="1.1" xmlns="http://www.w3.org/2000/svg" xmlns:xlink="http://www.w3.org/1999/xlink" xml:space="preserve" xmlns:serif="http://www.serif.com/" style="fill-rule:evenodd;clip-rule:evenodd;stroke-linejoin:round;stroke-miterlimit:2;">
    <path d="M400,0C179.025,0 0,179.025 0,400C0,620.975 179.025,800 400,800C620.975,800 800,620.975 800,400C800,179.025 620.975,0 400,0ZM245.575,145.975C263.175,145.975 277.2,160.3 277.2,177.475C277.2,194.675 263.175,209.1 245.575,209.1C228.275,209 214.075,194.925 214.075,177.475C214.075,160.05 228.15,145.975 245.575,145.975ZM221.6,247.125L269.675,247.125L269.675,581.9L221.6,581.9L221.6,247.125ZM340.375,247.125L470.3,247.125C594,247.125 648.425,335.65 648.425,414.7C648.425,500.675 581.25,582.175 470.95,582.175L340.35,582.175L340.375,247.125ZM388.4,290.625L388.4,538.8L464.975,538.8C574.1,538.8 599.1,456 599.1,414.7C599.1,347.525 556.275,290.625 462.5,290.625L388.4,290.625Z" style="fill:rgb(31,119,180);fill-rule:nonzero;"/>
</svg>
